<?xml version="1.0" standalone="no"?>
<!DOCTYPE svg PUBLIC "-//W3C//DTD SVG 20010904//EN"
 "http://www.w3.org/TR/2001/REC-SVG-20010904/DTD/svg10.dtd">
<svg version="1.0" xmlns="http://www.w3.org/2000/svg"
 width="1349.000000pt" height="1095.000000pt" viewBox="0 0 1349.000000 1095.000000"
 preserveAspectRatio="xMidYMid meet">

<g transform="translate(0.000000,1095.000000) scale(0.100000,-0.100000)"
fill="#000000" stroke="none">
<path d="M4900 9773 c-435 -47 -825 -247 -1185 -609 -300 -301 -467 -585 -543
-924 l-26 -115 -3 -1838 c-3 -1222 0 -1850 7 -1875 26 -98 110 -178 253 -240
73 -32 91 -36 167 -36 65 1 99 6 145 24 103 40 199 156 246 295 11 33 15 360
19 1770 l5 1730 22 77 c67 235 264 527 454 674 283 217 675 282 1024 169 90
-30 260 -108 287 -132 32 -29 21 -51 -49 -101 -199 -141 -282 -210 -423 -351
-165 -166 -249 -274 -348 -451 -107 -190 -164 -348 -205 -575 -22 -118 -22
-135 -22 -1070 0 -1043 -2 -998 61 -1193 105 -321 340 -602 621 -742 271 -134
626 -159 911 -63 91 30 225 96 302 148 110 74 149 80 207 31 251 -210 678
-295 1010 -201 180 52 410 187 579 339 147 134 262 324 309 511 38 148 49 521
42 1375 -6 713 -11 804 -52 977 -105 442 -420 883 -848 1187 -151 107 -170
125 -165 158 6 44 280 162 463 199 76 16 251 16 333 0 153 -29 376 -125 530
-228 201 -134 352 -334 422 -561 53 -173 52 -118 57 -1912 4 -1594 5 -1669 24
-1747 42 -185 134 -289 289 -329 215 -55 444 69 508 275 16 52 17 172 17 1836
0 1669 -1 1786 -18 1875 -54 287 -229 659 -424 900 -162 200 -470 449 -698
563 -171 85 -412 156 -593 176 -127 14 -405 14 -530 1 -442 -47 -850 -259
-1198 -624 -77 -80 -118 -116 -134 -116 -14 0 -61 38 -138 113 -394 381 -741
566 -1169 622 -104 14 -443 19 -543 8z m1386 -1841 c16 -33 30 -2499 15 -2595
-19 -114 -47 -176 -110 -238 -78 -79 -144 -102 -266 -97 -182 9 -296 102 -341
280 -21 85 -32 1148 -15 1496 26 521 97 705 374 960 150 139 272 225 312 220
11 -2 25 -13 31 -26z m1077 -45 c121 -79 196 -145 271 -239 111 -138 190 -312
235 -513 44 -200 46 -254 46 -1045 l0 -755 -23 -68 c-66 -190 -185 -274 -376
-265 -73 3 -101 9 -142 31 -66 33 -137 113 -166 185 l-23 57 0 1315 c0 1084 2
1319 13 1339 20 34 65 23 165 -42z"/>
</g>
</svg>
