<svg version="1.1" id="Layer_1" xmlns="http://www.w3.org/2000/svg" xmlns:xlink="http://www.w3.org/1999/xlink" x="0px" y="0px"
	 width="100%" viewBox="0 0 1920 1095" enable-background="new 0 0 1920 1095" xml:space="preserve">
<path fill="#000000" opacity="1.000000" stroke="none" 
	d="
M1071.000000,1096.000000 
	C714.000061,1096.000000 357.500122,1096.000000 1.000144,1096.000000 
	C1.000096,731.000122 1.000096,366.000244 1.000048,1.000290 
	C640.999756,1.000194 1280.999512,1.000194 1920.999512,1.000097 
	C1920.999634,365.999664 1920.999634,730.999329 1920.999756,1095.999512 
	C1637.833374,1096.000000 1354.666626,1096.000000 1071.000000,1096.000000 
M1136.985107,502.985046 
	C1136.985107,502.985046 1136.957886,502.915802 1136.423584,503.033234 
	C1136.254639,503.339783 1136.085815,503.646301 1135.987915,503.987946 
	C1135.987915,503.987946 1135.952515,503.917084 1135.420410,504.035187 
	C1135.252686,504.341003 1135.084839,504.646790 1134.987915,504.987762 
	C1134.987915,504.987762 1134.953247,504.916748 1134.419189,505.036591 
	C1134.251343,505.344086 1134.083496,505.651611 1133.984863,505.984741 
	C1133.984863,505.984741 1133.960938,505.914856 1133.420166,506.037048 
	C1133.252441,506.349487 1133.084595,506.661926 1132.988281,506.983734 
	C1132.988281,506.983734 1132.991211,506.911621 1132.339478,506.973480 
	C1131.868286,507.297119 1131.397095,507.620758 1130.988892,507.980865 
	C1130.988892,507.980865 1130.980835,507.908508 1130.332031,507.971008 
	C1129.863525,508.295959 1129.394897,508.620941 1128.989380,508.978516 
	C1128.989380,508.978516 1128.994385,508.907837 1128.269897,508.974060 
	C1127.698486,509.341736 1127.127075,509.709412 1126.474854,510.012909 
	C1126.474854,510.012909 1126.412109,510.094849 1125.465332,509.991486 
	C1120.150269,510.020569 1114.835327,510.049683 1109.507446,510.010162 
	C1109.507446,510.010162 1109.474609,510.071808 1109.021362,509.492920 
	C1108.349609,509.297882 1107.677856,509.102844 1107.010864,508.978546 
	C1107.010864,508.978546 1107.073853,508.946045 1106.880981,508.322906 
	C1106.258057,508.185059 1105.635132,508.047241 1105.010010,507.980316 
	C1105.010010,507.980316 1105.072876,507.947266 1104.854492,507.296173 
	C1104.191162,507.255188 1103.527710,507.214203 1102.287842,506.816681 
	C1099.184082,502.504974 1096.080322,498.193237 1092.969360,493.140625 
	C1092.667114,492.071259 1092.364990,491.001892 1092.022095,489.990997 
	C1092.022095,489.990997 1092.092773,490.000214 1092.028564,489.221649 
	C1091.660278,488.324921 1091.291992,487.428192 1090.974731,486.482391 
	C1090.974731,486.482391 1090.915161,486.443939 1091.008545,485.491913 
	C1090.685425,480.754028 1090.092163,476.015350 1090.106201,471.278442 
	C1090.124512,465.043793 1090.620361,458.810547 1090.977783,452.524719 
	C1090.977783,452.524719 1090.922852,452.460236 1091.550903,451.986847 
	C1091.731445,450.990692 1091.911865,449.994537 1092.021851,449.008667 
	C1092.021851,449.008667 1092.063599,449.066437 1092.750977,448.807587 
	C1092.778198,447.845215 1092.805298,446.882812 1093.175537,445.294830 
	C1096.178345,439.139618 1099.901978,433.593628 1106.740967,429.995270 
	C1107.517456,429.681854 1108.294067,429.368439 1109.008423,429.021759 
	C1109.008423,429.021759 1108.995850,429.091125 1109.765137,429.024475 
	C1110.644897,428.658417 1111.524780,428.292358 1112.589722,428.043518 
	C1112.589722,428.043518 1112.745728,427.889648 1113.707031,427.980560 
	C1118.141235,428.349854 1122.575439,428.719147 1126.993042,429.018768 
	C1126.993042,429.018768 1126.925293,429.042480 1127.114136,429.667236 
	C1127.735596,429.808746 1128.357056,429.950256 1128.989258,430.018066 
	C1128.989258,430.018066 1128.927246,430.059235 1129.115967,430.680450 
	C1129.735107,430.817505 1130.354370,430.954559 1130.990723,431.014771 
	C1130.990723,431.014771 1130.930176,431.065247 1131.122314,431.686462 
	C1131.743896,431.821198 1132.365601,431.955933 1132.985962,432.018951 
	C1132.985962,432.018951 1132.915283,432.030853 1133.030273,432.569885 
	C1133.338379,432.741119 1133.646362,432.912354 1133.992676,433.002594 
	C1133.992676,433.002594 1133.932129,433.068695 1134.124878,433.684570 
	C1134.741577,433.815674 1135.358154,433.946777 1136.186646,434.686005 
	C1137.089844,435.797852 1137.993042,436.909668 1138.996582,438.730286 
	C1139.309082,439.509338 1139.621704,440.288361 1139.980835,441.009705 
	C1139.980835,441.009705 1139.906738,441.011871 1139.970703,441.733002 
	C1140.339233,442.300201 1140.707764,442.867401 1140.996582,443.537292 
	C1140.996582,443.537292 1141.098267,443.618256 1140.997070,444.523621 
	C1140.558594,448.251892 1142.079590,449.678406 1146.003906,448.650787 
	C1146.003906,440.996094 1146.027832,433.415192 1145.954468,425.835266 
	C1145.949219,425.284088 1145.238770,424.739746 1144.095581,424.045868 
	C1142.634033,425.609680 1141.172485,427.173523 1139.190918,429.293793 
	C1130.894653,422.695984 1120.573975,424.387726 1110.526489,423.889404 
	C1103.618286,423.546783 1098.285400,426.398132 1092.421265,430.016479 
	C1091.925293,430.321716 1091.429321,430.626984 1090.992310,430.995056 
	C1090.992310,430.995056 1090.960571,430.915009 1090.422363,431.036499 
	C1090.253174,431.346558 1090.083984,431.656616 1089.983887,431.983643 
	C1089.983887,431.983643 1089.968262,431.914185 1089.427002,432.036163 
	C1089.256226,432.347717 1089.085449,432.659241 1088.984009,432.983948 
	C1088.984009,432.983948 1088.970825,432.914642 1088.428467,433.036194 
	C1088.257080,433.347839 1088.085815,433.659485 1087.983765,433.983978 
	C1087.983765,433.983978 1087.970825,433.914734 1087.429565,434.035614 
	C1087.257812,434.346466 1087.085938,434.657318 1086.983521,434.983948 
	C1086.983521,434.983948 1086.965454,434.914978 1086.426392,435.031403 
	C1086.256104,435.340240 1086.085815,435.649078 1085.985840,435.985840 
	C1085.985840,435.985840 1085.956299,435.916229 1085.422974,436.032471 
	C1085.254517,436.338287 1085.086182,436.644073 1085.000610,436.992584 
	C1085.000610,436.992584 1084.927856,436.933838 1084.309082,437.127838 
	C1084.176392,437.748535 1084.043701,438.369202 1083.982788,438.987488 
	C1083.982788,438.987488 1083.971558,438.916565 1083.430054,439.029388 
	C1083.258545,439.338593 1083.087036,439.647797 1082.993652,439.992065 
	C1082.993652,439.992065 1082.936401,439.928558 1082.316284,440.122223 
	C1082.180664,440.742920 1082.044922,441.363586 1081.980591,441.988922 
	C1081.980591,441.988922 1081.949219,441.924927 1081.325439,442.118622 
	C1081.186768,442.742249 1081.047974,443.365845 1080.979858,443.988831 
	C1080.979858,443.988831 1080.954224,443.923065 1080.327759,444.111450 
	C1080.188232,444.734924 1080.048584,445.358368 1079.981567,445.990814 
	C1079.981567,445.990814 1079.943237,445.928650 1079.237305,446.209351 
	C1079.186157,446.962067 1079.135010,447.714752 1079.018311,448.491486 
	C1079.018311,448.491486 1079.074707,448.532623 1078.448120,449.012177 
	C1078.269653,450.012970 1078.091187,451.013733 1077.981934,451.994781 
	C1077.981934,451.994781 1077.957031,451.927246 1077.202515,452.261078 
	C1076.786133,455.601074 1076.678467,459.015594 1075.893433,462.266602 
	C1073.830811,470.807983 1075.277100,478.971130 1077.980103,487.007294 
	C1077.980103,487.007294 1077.910645,486.995514 1077.986816,487.716614 
	C1078.309326,488.501892 1078.631958,489.287140 1078.981079,490.007538 
	C1078.981079,490.007538 1078.911743,489.997223 1079.003662,490.659515 
	C1079.343872,491.157013 1079.683960,491.654510 1080.012329,492.873474 
	C1085.243530,503.679260 1092.913940,511.742920 1105.217163,515.757568 
	C1112.889038,517.236755 1120.552734,518.449341 1128.008179,515.020569 
	C1128.008179,515.020569 1127.998779,515.090271 1128.717773,515.019104 
	C1129.502197,514.698242 1130.286621,514.377441 1131.009521,514.018982 
	C1131.009521,514.018982 1131.015381,514.090881 1131.667358,514.021912 
	C1132.136719,513.694580 1132.606201,513.367310 1133.009155,513.017883 
	C1133.009155,513.017883 1133.005737,513.087769 1133.660278,513.016357 
	C1134.132202,512.690369 1134.604004,512.364380 1135.008789,512.017456 
	C1135.008789,512.017456 1135.003784,512.087463 1135.657104,512.014709 
	C1136.129761,511.690186 1136.602539,511.365662 1137.009155,511.018127 
	C1137.009155,511.018127 1137.005249,511.088013 1137.667725,511.016998 
	C1138.151123,510.684601 1138.634521,510.352173 1139.819580,510.012115 
	C1140.610718,511.290375 1141.401855,512.568665 1142.246826,514.718079 
	C1143.459229,514.718079 1144.671631,514.718079 1146.010376,514.718079 
	C1146.010376,507.231842 1146.065430,500.097198 1145.945068,492.965485 
	C1145.928833,492.006927 1145.027588,491.063293 1144.175171,489.947662 
	C1143.898804,489.892792 1143.645996,489.947540 1142.746704,490.036194 
	C1142.471191,490.345642 1142.195801,490.655090 1141.991211,490.992737 
	C1141.991211,490.992737 1141.946533,490.930878 1141.210205,491.241760 
	C1141.106689,492.838562 1141.003174,494.435394 1141.015747,496.059662 
	C1141.015747,496.059662 1141.053833,495.946533 1140.628906,496.055725 
	C1140.304810,496.173828 1140.163940,496.403900 1140.025757,497.462494 
	C1139.681641,498.598145 1139.337524,499.733795 1138.450317,501.029114 
	C1138.271729,501.343933 1138.093018,501.658752 1137.983887,501.984436 
	C1137.983887,501.984436 1137.970093,501.915466 1137.430054,502.032410 
	C1137.258301,502.341522 1137.086670,502.650635 1136.985107,502.985046 
M1740.160278,514.685242 
	C1740.602051,514.761047 1741.043701,514.836853 1741.489502,514.988342 
	C1741.489502,514.988342 1741.524902,514.921204 1741.963501,515.481323 
	C1742.466309,515.294250 1742.969116,515.107178 1743.812378,515.071289 
	C1744.071899,515.122375 1744.309082,515.070862 1745.089478,515.648010 
	C1749.514282,515.401123 1753.939087,515.154236 1758.439941,514.995483 
	C1758.439941,514.995483 1758.528564,514.920044 1758.964233,515.482727 
	C1759.466553,515.295166 1759.968750,515.107666 1760.556519,514.992920 
	C1760.556519,514.992920 1760.628784,514.906982 1761.587036,514.972778 
	C1763.180298,514.950684 1764.773438,514.928528 1766.441162,514.994812 
	C1766.441162,514.994812 1766.529053,514.919800 1766.964478,515.482910 
	C1767.467773,515.295532 1767.970947,515.107788 1768.512085,514.989075 
	C1768.512085,514.989075 1768.505981,514.911194 1769.336914,514.951172 
	C1772.313232,512.834656 1771.134644,511.624023 1768.368408,511.050140 
	C1766.960205,510.757996 1765.453491,510.940887 1764.009277,510.979004 
	C1764.009277,510.979004 1764.077148,510.954132 1763.922974,510.364258 
	C1763.294067,509.883606 1762.665039,509.402954 1762.017212,508.992218 
	C1762.017212,508.992218 1762.088135,509.006714 1762.014771,508.286285 
	C1761.694214,507.500244 1761.373779,506.714233 1761.021362,505.991272 
	C1761.021362,505.991272 1761.091309,506.001068 1761.018555,505.283966 
	C1760.700439,504.499969 1760.382324,503.715973 1760.020264,502.990265 
	C1760.020264,502.990265 1760.093262,502.990509 1760.028931,502.265411 
	C1759.661133,501.692474 1759.293335,501.119537 1758.974854,500.485413 
	C1758.974854,500.485413 1758.910889,500.439575 1758.907715,500.908966 
	C1759.258301,501.885162 1759.675781,502.437805 1760.093262,502.990479 
	C1760.093262,502.990509 1760.020264,502.990265 1759.862183,503.299072 
	C1760.166504,504.405579 1760.628906,505.203339 1761.091309,506.001099 
	C1761.091309,506.001068 1761.021362,505.991272 1760.896240,506.306763 
	C1761.209961,507.417084 1761.649048,508.211914 1762.088135,509.006714 
	C1762.088135,509.006714 1762.017212,508.992218 1761.954834,509.325684 
	C1762.620605,510.090790 1763.348877,510.522461 1764.077148,510.954132 
	C1764.077148,510.954132 1764.009277,510.979004 1764.162842,511.293396 
	C1765.534546,512.935181 1769.941284,510.218597 1768.505981,514.911194 
	C1768.505981,514.911194 1768.512085,514.989075 1768.006592,514.825317 
	C1767.177124,514.747681 1766.853149,514.833740 1766.529053,514.919800 
	C1766.529053,514.919800 1766.441162,514.994812 1766.111084,514.685913 
	C1764.063477,514.553711 1762.346191,514.730347 1760.628784,514.906982 
	C1760.628784,514.906982 1760.556519,514.992920 1760.027832,514.827576 
	C1759.175659,514.748169 1758.852051,514.834106 1758.528564,514.920044 
	C1758.528564,514.920044 1758.439941,514.995483 1758.047607,514.674683 
	C1753.278198,514.541565 1748.901245,514.729187 1744.524170,514.916870 
	C1744.309082,515.070862 1744.071899,515.122375 1743.155029,514.865906 
	C1742.173340,514.747437 1741.849121,514.834290 1741.524902,514.921143 
	C1741.524902,514.921204 1741.489502,514.988342 1741.328125,514.646240 
	C1740.751465,514.215210 1740.336426,514.126221 1739.921265,514.037231 
	C1739.921265,514.037231 1739.991333,514.009460 1740.103760,513.675293 
	C1740.178467,513.084412 1740.140625,512.827698 1740.102905,512.571045 
	C1740.102905,512.571045 1740.061768,512.506409 1740.525513,512.389648 
	C1743.689941,512.105713 1746.390625,511.938416 1750.005737,511.714508 
	C1749.017700,510.444031 1748.463623,509.731506 1747.909546,509.018982 
	C1747.909546,509.018982 1747.983276,509.007080 1748.128662,508.719727 
	C1747.906860,507.597198 1747.539551,506.761963 1747.172119,505.926727 
	C1745.789429,502.577087 1744.406616,499.227448 1743.076172,495.134064 
	C1742.723267,493.590607 1742.318115,492.790863 1741.912842,491.991119 
	C1741.912964,491.991089 1741.982422,492.005951 1742.080322,491.670044 
	C1741.421875,489.895050 1740.665405,488.455994 1739.908936,487.016907 
	C1739.908936,487.016876 1739.980347,487.010193 1740.105225,486.630859 
	C1739.162720,485.508057 1738.108276,484.142212 1737.025757,484.119720 
	C1728.440918,483.941254 1719.847778,483.908508 1711.266235,484.152191 
	C1710.162598,484.183563 1709.111084,486.056580 1708.035400,487.076416 
	C1708.035400,487.076385 1708.017334,487.008636 1707.745850,487.075317 
	C1707.281250,488.189514 1707.088257,489.237030 1706.895264,490.284515 
	C1705.651367,493.631439 1704.407349,496.978363 1702.713135,500.873291 
	C1702.195801,5..."/>
</svg>
